<?xml version="1.0" encoding="UTF-8"?>
<svg width="434px" height="688px" viewBox="0 0 434 688" version="1.1" xmlns="http://www.w3.org/2000/svg" xmlns:xlink="http://www.w3.org/1999/xlink">
    <!-- Generator: Sketch 50.2 (55047) - http://www.bohemiancoding.com/sketch -->
    <title>Slice</title>
    <desc>Created with Sketch.</desc>
    <defs>
        <polygon id="path-1" points="0.1 688.9 0.1 0.8 433.9 0.8 433.9 688.9"></polygon>
    </defs>
    <g id="Page-1" stroke="none" stroke-width="1" fill="none" fill-rule="evenodd">
        <g id="logo-final" transform="translate(-1.000000, -1.000000)">
            <polygon id="Shape" fill="#FFFFFF" fill-rule="nonzero" points="0 0 0 689 433 689 433 0"></polygon>
            <path d="M379.6,269.1 L371.3,334.4 C386.3,346.5 395.9,365 395.9,385.8 C395.9,422.3 366.3,451.9 329.8,451.9 C319.9,451.9 318.5,449.7 310.1,445.8 C308.5,449.3 306.9,452.9 305.1,456.3 L427.2,456.3 L427.2,183.7 C419.2,186.5 408.6,188.7 394.6,188.7 L379.6,269.1 Z" id="Shape" fill="#5AA7DB" fill-rule="nonzero"></path>
            <path d="M400.7,94.7 C409.6,98.3 418.8,101.9 427.2,105.1 L427.2,6.1 L4.8,6.1 L4.8,277.4 C36,234 86.9,205.7 144.4,205.7 C220.5,205.7 285,255.1 307.6,323.5 C314.6,321.1 322,319.7 329.8,319.7 C338.6,319.7 346.9,321.4 354.5,324.5 L353,323.3 L365.4,260.2 L372.5,201.9 L322.4,201.9 L329.5,254.4 L340.6,320.2 L322.4,318.8 L311.1,245.9 L299.6,188.7 L301.9,188.7 C256.9,189 241,168.3 241,168.3 L345.7,169 L427.2,169 L427.2,158.9 L241.1,158.9 C210.5,158.9 215.7,152 215.7,143.6 L231.2,143.6 L231.2,127.3 L427.2,127.3 L427.2,117.6 L240,117.6 C239.2,117.6 239,116.6 239.7,116.3 C248.9,112.9 273.6,103.8 296.1,94.7 C321.3,84.5 315.5,61.5 314,56.7 C313.8,56.2 314.2,55.8 314.6,55.8 L382.2,55.8 C382.7,55.8 383,56.2 382.9,56.7 C381.3,61.5 375.5,84.5 400.7,94.7 Z" id="Shape" fill="#5AA7DB" fill-rule="nonzero"></path>
            <g id="Clipped">
                <g id="Shape-Clipped">
                    <mask id="mask-2" fill="white">
                        <use xlink:href="#path-1"></use>
                    </mask>
                    <g id="path-1"></g>
                    <path d="M10.7,415.8 C12.3,416.9 14,418 15.7,419.1 C13.6,424.7 12,430.4 10.7,436.1 L10.7,415.8 Z M10.7,356.1 C19.3,362.3 29.4,368 40.5,373.4 C30.8,387.3 22.6,401.6 16.8,416.2 C14.7,414.8 12.7,413.5 10.7,412 L10.7,356.1 Z M10.7,315.1 C15.5,308.6 20.7,302.3 26.2,296.3 C39.4,305.6 58.6,314.7 81.1,324.6 C67.2,339.4 53.8,354.9 42.3,370.9 C30.3,365.1 19.6,359 10.7,352.3 L10.7,315.1 Z M10.7,281.2 C13.5,285.8 17.9,290.2 23.8,294.6 C19.2,299.6 14.9,304.8 10.7,310.2 L10.7,281.2 Z M10.7,11.5 L346,11.5 L346,52.7 L314.2,52.7 C313,52.7 311.8,53.3 311.1,54.2 C310.4,55.2 310.2,56.5 310.6,57.6 C312.4,63.4 316.7,82.9 294.5,91.9 C272.2,100.9 247.7,110 238.2,113.4 C236.5,114.1 235.5,115.8 235.8,117.6 C236.1,119.4 237.7,120.7 239.5,120.7 L423.2,120.7 L423.2,124.3 L230.7,124.3 C229,124.3 227.6,125.6 227.6,127.3 L227.6,140.6 L215.2,140.6 C213.5,140.6 212.2,141.9 212.2,143.6 C212.2,144.6 212.1,145.6 212,146.6 C211.7,149.8 211.4,153.5 214.2,156.5 C217.8,160.4 225.4,161.9 240.6,161.9 L423.2,161.9 L423.2,165.9 L349.1,165.9 L234.3,165.2 L238.1,170.2 C238.8,171 254.4,190.7 297.2,191.7 C298.7,198.4 303.4,219.4 308.4,247.5 L304.9,248.1 C304.6,248.1 304.2,248.2 303.9,248.4 C293.5,252.4 287.7,263.8 290.7,274.6 L292.4,283.4 C288.6,277.5 284.5,271.8 280.1,266.4 C279.1,265.1 278.4,264.3 278.4,264.3 C267.6,251.6 255,240.5 241.1,231.3 C241,231.2 240.9,231.2 240.9,231.2 C205.1,207.7 160.6,197.4 115.3,205.6 C72.3,213.4 35.9,236.6 10.7,268.5 L10.7,11.5 Z M350.6,11.5 L423.2,11.5 L423.2,100.5 C416.1,97.7 408.7,94.8 401.4,91.9 C379.2,82.9 383.5,63.4 385.3,57.6 C385.7,56.5 385.5,55.2 384.8,54.2 C384.1,53.3 382.9,52.7 381.7,52.7 L350.6,52.7 L350.6,11.5 Z M317.2,58.8 L378.7,58.8 C376.7,67.4 375.1,87.8 399.1,97.6 C407.1,100.8 415.4,104 423.2,107 L423.2,114.6 L252.7,114.6 C264.6,110.2 281.2,103.9 296.8,97.6 C320.8,87.8 319.2,67.4 317.2,58.8 Z M233.8,140.6 L233.8,130.4 L423.2,130.4 L423.2,141.1 L233.8,140.6 Z M423.2,147.2 L423.2,155.8 L240.6,155.8 C228.2,155.8 220.9,154.7 218.7,152.4 C217.8,151.3 217.9,149.8 218.1,147.1 C218.1,146.9 218.1,146.8 218.1,146.7 L225.3,146.7 L423.2,147.2 Z M65.6,444.1 C64.2,446.9 63,449.6 61.8,452.4 L11.4,452.4 C12.2,441.7 14.6,431.2 18.4,420.8 C32.3,429.3 48.5,436.9 65.6,444.1 Z M57.9,381.2 C57.8,382.7 57.7,384.3 57.7,385.8 C57.7,402.5 63.6,417.9 73.4,430 C71.1,433.8 69,437.6 67,441.4 C49.7,434.2 33.4,426.5 19.5,417.8 C25.2,403.2 33.5,388.8 43.3,374.8 C48,377 52.9,379.1 57.9,381.2 Z M84.1,325.9 C85.4,326.6 86.8,327.2 88.2,327.8 C71.8,339.1 60.5,357.2 58.2,378 C53.7,376.1 49.3,374.2 45.1,372.2 C56.7,356.2 70.2,340.7 84.1,325.9 Z M75.4,251.2 C87.8,260.3 105.6,269.1 126.4,278.7 C122.9,282.2 119.2,285.9 115.5,289.6 C105,300 94.1,310.9 83.3,322.3 C61.1,312.5 41.6,303.3 28.3,294 C43.5,277.8 60.3,263.5 75.4,251.2 Z M72.9,249.3 C57.8,261.7 41.1,275.9 25.9,292.3 C19.1,287.2 14.2,282.1 11.9,277 C24.6,259.7 40.6,244.8 59.2,233.5 C61.7,238.9 66.4,244.2 72.9,249.3 Z M81.9,242 C79.8,243.7 77.6,245.5 75.4,247.3 C68.8,242.2 64.1,237.1 61.8,231.9 C77.6,222.6 95.2,215.8 114.1,212.1 C109.9,219.3 97.2,229.6 81.9,242 Z M159.6,230.2 C162,231 164.5,231.9 167,232.7 C162.7,239.2 157.1,246.1 150.5,253.4 L147,253.4 C146.6,253.4 146.2,253.5 145.9,253.5 C145.8,253.6 145.7,253.6 145.5,253.6 C145.3,253.7 145.1,253.8 144.9,253.8 C144.7,253.9 144.6,254 144.4,254.1 C144.3,254.2 144.1,254.2 144,254.3 C143.8,254.4 143.7,254.6 143.6,254.7 C143.4,254.8 143.3,254.9 143.2,255 C143.1,255.1 143,255.2 142.9,255.4 C142.7,255.5 142.6,255.6 142.5,255.8 C142.4,255.9 142.4,256.1 142.3,256.2 C142.2,256.4 142.1,256.5 142,256.7 C142,256.8 141.9,257 141.9,257.1 C141.8,257.3 141.8,257.5 141.7,257.7 C141.7,257.8 141.7,258 141.7,258.2 C141.6,258.4 141.6,258.6 141.6,258.8 C141.6,259 141.6,259.1 141.7,259.3 C141.7,259.5 141.7,259.7 141.7,259.8 C141.8,260 141.8,260.2 141.9,260.4 C141.9,260.5 142,260.7 142,260.8 C142.1,261 142.2,261.2 142.3,261.3 C142.4,261.5 142.4,261.6 142.5,261.8 C142.6,261.8 142.6,261.9 142.7,262 C138.3,266.6 133.6,271.4 128.7,276.3 C108.4,267 90.4,258.1 77.9,249.1 C79.9,247.5 81.9,245.9 83.8,244.3 C100.9,230.5 113.4,220.3 117.4,212.5 C123.9,218.3 139,223.4 159.6,230.2 Z M168.2,230.7 C165.6,229.8 162.9,228.9 160.4,228.1 C141.5,221.8 125.8,216.5 119.3,211.2 C128.4,209.7 137.4,209 146.3,209 C156.2,209 166.1,209.9 175.7,211.6 C175.3,217.3 172.6,223.7 168.2,230.7 Z M230.4,255.4 C210.4,245.5 189.8,238 171.3,231.7 C175.6,224.7 178.2,218.2 178.7,212.2 C200.1,216.5 220.3,224.9 238.2,236.8 C237.7,242.3 234.9,248.6 230.4,255.4 Z M275.7,285 C269,279.2 261.5,273.6 253.2,268.3 C246.7,264.1 240,260.4 233.2,256.9 C237.4,250.3 240.2,244.2 241.1,238.7 C254.8,248.1 267,259.6 277.4,272.8 C277.4,276.9 276.8,280.9 275.7,285 Z M278.3,286.7 C279.3,283.3 280,280 280.3,276.6 C282.7,279.9 285,283.3 287.2,286.7 L278.3,286.7 Z M285.1,297.4 C285.4,297.8 285.7,298.2 286.1,298.5 L249.9,339.4 C248.4,338.3 246.9,337.3 245.4,336.2 C257.9,323.2 268.1,310.3 274.2,297.4 L285.1,297.4 Z M266.3,352.1 C263.8,350 261.1,347.9 258.5,345.8 L293,306.9 C294.8,309.4 296.6,311.9 298.2,314.5 L299.6,321.4 C285.4,327.7 273.7,338.6 266.3,352.1 Z M285.5,441.8 C291.4,446.3 298,449.9 305.1,452.4 L277.3,452.4 C277.1,451.8 276.8,451.3 276.6,450.8 C279.7,447.8 282.6,444.9 285.5,441.8 Z M246.8,411.2 C251,407.3 255.1,403.3 259,399.3 C262.2,415.6 271,429.9 283.3,440.1 C280.7,442.7 278,445.4 275.3,448 C268.6,434.6 258.8,422.4 246.8,411.2 Z M207.8,446.4 C210.2,444.2 212.7,442.1 215.1,439.9 C225,431.1 235,422.2 244.5,413.3 C256.6,424.5 266.4,436.7 272.9,450.2 C272.1,450.9 271.3,451.7 270.5,452.4 L215.3,452.4 C212.8,450.3 210.4,448.3 207.8,446.4 Z M205.6,448.3 C207.4,449.6 209.2,451 210.9,452.4 L201.1,452.4 C202.6,451 204.1,449.7 205.6,448.3 Z M180.8,432.7 C188.7,437 196.2,441.6 203.1,446.5 C200.9,448.4 198.7,450.4 196.5,452.4 L151.4,452.4 C162.8,448.4 172.9,441.6 180.8,432.7 Z M144.5,286.9 C152.2,290.3 160.1,293.9 168,297.6 L156,320.9 C147.4,317.3 138.1,315.3 128.3,315.3 C114.7,315.3 102,319.1 91.3,325.8 C89.6,325 88,324.3 86.3,323.6 C96.8,312.5 107.5,301.9 117.6,291.8 C121.7,287.7 125.6,283.8 129.4,280 C134.3,282.3 139.3,284.5 144.5,286.9 Z M156.1,264.2 C160,264.3 163.4,267 164.4,270.9 C164.5,271.1 164.5,271.3 164.6,271.6 L166.5,276.2 C166.6,276.8 166.7,277.4 166.8,278.1 C166.9,278.3 167,278.5 167.1,278.7 L171.7,290.4 L169.4,294.9 C161.4,291.2 153.5,287.6 145.8,284.1 C141,281.9 136.3,279.8 131.7,277.7 C136.4,272.9 140.9,268.3 145.2,263.8 C145.2,263.8 145.3,263.8 145.3,263.9 C145.5,263.9 145.7,264 145.9,264 C146,264 146.2,264 146.4,264.1 C146.6,264.1 146.8,264.1 146.9,264.1 L156.1,264.2 Z M204,286.7 L182.1,286.7 L177,273.7 C176.9,271.5 177.5,269.5 178.8,267.8 C180.5,265.6 183.1,264.3 185.9,264.3 L201.1,264.3 C201.5,264.3 201.8,264.3 202.2,264.2 C202.3,264.2 202.4,264.1 202.5,264.1 C202.7,264 203,264 203.2,263.9 C203.3,263.8 203.5,263.7 203.6,263.7 C203.8,263.6 203.9,263.5 204.1,263.4 C204.2,263.3 204.4,263.2 204.5,263.1 C204.6,263 204.8,262.9 204.9,262.7 C205,262.6 205.1,262.5 205.2,262.4 C205.3,262.2 205.4,262.1 205.5,262 C205.6,261.8 205.7,261.7 205.8,261.5 C205.9,261.4 206,261.2 206,261 C206.1,260.9 206.1,260.7 206.2,260.6 C206.2,260.4 206.3,260.2 206.3,260 C206.4,259.9 206.4,259.7 206.4,259.6 C206.4,259.4 206.5,259.2 206.5,259 C206.5,258.8 206.4,258.6 206.4,258.4 C206.4,258.3 206.4,258.1 206.3,257.9 C206.3,257.7 206.2,257.5 206.2,257.4 C206.1,257.2 206.1,257 206,256.9 C206,256.7 205.9,256.6 205.8,256.4 C205.7,256.3 205.6,256.1 205.5,256 C205.4,255.8 205.3,255.7 205.2,255.6 C205.1,255.4 205,255.3 204.9,255.2 C204.8,255.1 204.6,255 204.5,254.9 C204.4,254.8 204.3,254.6 204.1,254.5 C204,254.4 203.8,254.4 203.7,254.3 C203.5,254.2 203.4,254.1 203.2,254 C203,254 202.9,253.9 202.7,253.9 C202.5,253.8 202.4,253.8 202.2,253.7 C202,253.7 201.8,253.7 201.7,253.7 C201.5,253.6 201.3,253.6 201.1,253.6 L156.5,253.5 C156.2,253.5 156,253.4 155.7,253.4 L154.6,253.4 C160.8,246.5 166,239.9 170,233.7 C188.5,240 209.1,247.4 229.1,257.4 C223,266.2 214.3,276.1 204,286.7 Z M208.3,286.7 C218,276.6 226.1,267.3 231.9,258.8 C238.7,262.3 245.5,266.1 252,270.2 C260.2,275.4 267.5,280.9 274.1,286.7 L208.3,286.7 Z M242.8,334.5 C226.4,323.5 208.4,313.8 190.3,304.8 C192.8,302.3 195.4,299.8 197.8,297.4 L270.8,297.4 C264.8,309.6 254.9,322 242.8,334.5 Z M217.5,375.8 L213.7,366.4 C224.2,357 234.3,347.7 243.2,338.5 C244.8,339.5 246.3,340.6 247.8,341.7 L217.5,375.8 Z M198.5,391.2 L215.4,391.2 C215.466667,391.2 215.5,391.2 215.5,391.2 C215.566667,391.2 215.633333,391.2 215.7,391.2 C215.9,391.2 216,391.2 216.2,391.2 C225.6,397.5 234.4,404.2 242.3,411.3 C232.8,420.1 222.9,428.9 213.1,437.6 C210.5,439.9 207.8,442.2 205.3,444.6 C198.3,439.5 190.7,434.9 182.7,430.5 C191.6,419.6 197.4,406.1 198.5,391.2 Z M187.8,380.5 L137.2,380.5 L160.5,335.4 C175.7,345.2 186.2,361.6 187.8,380.5 Z M171.3,319 C169.8,320.4 168.3,321.8 166.8,323.3 L177,303.6 L179.8,310.7 C177,313.5 174.1,316.2 171.3,319 Z M207.6,380.5 L205.2,380.5 C203.7,379.6 202.3,378.8 200.8,377.9 C202.2,376.6 203.6,375.4 205,374.1 L207.6,380.5 Z M190.8,308.5 C208,317.1 225.1,326.4 240.7,336.7 C232.1,345.5 222.5,354.4 212.5,363.3 L190.8,308.5 Z M186.4,297.4 L193.5,297.4 C191.8,299.1 190.1,300.7 188.4,302.4 L186.4,297.4 Z M203.8,371.1 C201.9,372.8 200,374.5 198.1,376.2 C195.3,355.7 183.7,338.1 167.2,327.1 C169.3,325.1 171.4,323.1 173.4,321.2 C176,318.7 178.5,316.2 181,313.8 L203.8,371.1 Z M258.4,395.6 C253.9,400.1 249.3,404.6 244.5,409.2 C236.9,402.3 228.4,395.8 219.4,389.7 C219.5,389.6 219.6,389.5 219.7,389.4 C219.7,389.4 219.8,389.3 219.9,389.3 L256.4,348.1 C259.3,350.3 262.1,352.6 264.8,354.9 C260.3,364.3 257.7,374.7 257.7,385.8 C257.7,389.1 258,392.4 258.4,395.6 Z M68.4,385.8 C68.4,352.8 95.3,326 128.3,326 C136.3,326 144,327.6 151,330.5 L126.2,378.5 C123,379.4 120.6,382.3 120.6,385.8 C120.6,390 124,393.4 128.3,393.4 C130.3,393.4 132.2,392.6 133.6,391.2 L187.8,391.2 C185,421.7 159.4,445.6 128.3,445.6 C95.3,445.6 68.4,418.8 68.4,385.8 Z M86.1,452.4 L65.1,452.4 C66.2,450 67.2,447.6 68.4,445.3 C74.2,447.7 80.2,450 86.1,452.4 Z M69.8,442.5 C71.6,439.2 73.5,435.8 75.5,432.5 C83.4,441.4 93.6,448.4 105.1,452.4 L94.5,452.4 C86.2,449.2 77.9,445.9 69.8,442.5 Z M301.6,332.2 L305.2,351 C307.6,363.6 312.9,375.3 320.9,385.2 C320.8,385.4 320.8,385.6 320.8,385.8 C320.8,390 324.2,393.4 328.4,393.4 C332.6,393.4 336,390 336,385.8 C336,381.8 332.9,378.5 329,378.2 C322.3,369.7 317.7,359.7 315.7,349.1 L311.8,328.3 C317,326.8 322.5,326 328.2,326 C361.2,326 388.1,352.8 388.1,385.8 C388.1,418.8 361.2,445.6 328.2,445.6 C295.2,445.6 268.4,418.8 268.4,385.8 C268.4,362.4 282,342 301.6,332.2 Z M318.5,316 C315.5,316.4 312.6,317 309.8,317.7 L301.1,272.4 C301.1,272.2 301.1,272 301,271.9 C299.5,266.5 302.2,260.7 307.3,258.5 L310.3,258 C313.2,275.6 316.2,295.4 318.5,316 Z M337.1,315.8 C334.2,315.5 331.3,315.3 328.2,315.3 C327,315.3 325.8,315.3 324.5,315.4 C322.2,294.7 319.3,274.7 316.3,256.9 L326.3,255.1 C326.9,259.2 327.5,263.3 328.2,267.4 C331.8,290.6 334.7,305.9 337.1,315.8 Z M332.3,254 L344.7,251.8 C347.7,251.3 349.6,248.5 349.1,245.6 C348.5,242.7 345.8,240.8 342.9,241.3 L330.7,243.5 C328.9,230.9 327.2,217.9 325.6,205.1 L368.9,205.1 C362.6,260.5 355.5,300.9 350.3,318.8 C348.1,318.1 345.9,317.5 343.7,317 C340.3,303.5 336.2,280.3 332.3,254 Z M345.9,191.7 L391.4,191.7 C388,207 375,265.9 369,328.3 C365,325.4 360.6,323 356.1,321 C356.8,318.5 357.6,315.6 358.4,312.2 C361,301.4 363.8,286.3 366.7,267.4 C371.6,235.3 375.3,202.7 375.3,202.4 L375.7,199 L318.7,199 L319.1,202.4 C319.1,202.7 321.4,221.5 324.8,244.5 L314.4,246.4 C309.7,220 305.3,199.8 303.5,191.7 L345.9,191.7 Z M423.2,188 L423.2,452.4 L351.4,452.4 C378.9,442.8 398.8,416.6 398.8,385.8 C398.8,364.7 389.4,345.7 374.7,332.8 C380.7,267.2 394.8,204.3 397.7,191.7 C407.9,191.4 416.3,190 423.2,188 Z M394.2,185.6 L345.9,185.6 C344.9,185.6 343.6,185.6 341.9,185.6 C335.6,185.5 323.7,185.4 301.7,185.6 C272.8,185.9 256.2,177.2 248.5,171.4 L345.2,172 L423.2,172 L423.2,181.7 C415.8,184 406.3,185.6 394.2,185.6 Z M428.5,0.8 L5.3,0.8 C2.4,0.8 0,3.2 0,6.1 L0,683.7 C0,686.6 2.4,689 5.3,689 L428.5,689 C431.5,689 433.9,686.6 433.9,683.7 L433.9,6.1 C433.9,3.2 431.5,0.8 428.5,0.8 Z" id="Shape" fill="#231F20" fill-rule="nonzero" mask="url(#mask-2)"></path>
                </g>
            </g>
            <path d="M114.8,632.7 C111.7,635 109.4,638 107.6,641.3 C105.5,645.3 104,649.4 104.3,654.1 C104.3,654.9 104.9,655.7 105.3,656.5 C105.9,655.9 106.7,655.4 107,654.7 C108.8,650.8 110.6,646.9 112,642.8 C113.2,639.5 113.9,636.1 114.8,632.7 Z M116.8,621.8 C115.4,623.2 114.3,624.6 113,625.7 C111.8,626.6 110.4,627.4 109,627.8 C105.2,628.9 101.9,626.9 101.2,622.7 C100.8,619.9 100.8,616.8 101.3,614 C102.5,606 105.1,598.4 108.4,591 C109.2,589.3 110,589.2 111.3,590.5 C113,592.4 113.4,594.6 112.9,597 C112.5,599.2 111.8,601.3 111.2,603.5 C109.9,608.3 108.4,613.1 107.2,617.9 C106.9,619.2 106.9,620.6 107,622 C107.3,624.6 109.3,625.6 111.2,623.8 C112.8,622.3 114.3,620.4 115.2,618.4 C117.5,612.8 119.5,607 121.6,601.3 C123.1,596.8 124.4,592.3 126,587.8 C126.3,587 127,586.4 127.6,585.8 C128.3,586.4 129.1,587 129.6,587.8 C131.2,590.9 130.6,594.1 129.7,597.4 C127.7,605.2 125.6,613.1 123.6,621 C123.4,621.7 123.3,622.3 123.2,622.9 C123.4,623 123.5,623.2 123.7,623.3 C126,620.7 128.5,618.3 130.6,615.6 C132.6,612.9 134.1,609.9 135.9,607.1 C136.2,606.6 136.7,606.2 137.1,605.8 C137.4,606.4 137.9,607 137.9,607.6 C137.9,611.6 136,614.8 133.6,617.7 C130.8,621.3 127.1,623.9 123.5,626.5 C122.8,627 122.2,628 122,628.8 C120.4,636.3 118.9,643.9 116,651 C114.7,654.2 113.2,657.2 110.8,659.5 C108,662.2 106.1,662.1 103.3,659.4 C99.8,656 99,651.9 100,647.3 C101.3,641.5 104.6,637 108.9,633.2 C110.7,631.6 112.7,630.3 114.6,628.7 C115.1,628.3 115.6,627.6 115.8,626.9 C116.2,625.3 116.5,623.7 116.8,621.8 Z" id="Shape" fill="#FFFFFF" fill-rule="nonzero"></path>
            <path d="M92.4,600.8 C91.7,599.8 91.1,598.1 90.2,597.9 C89.1,597.7 87.5,598.5 86.6,599.3 C85.3,600.5 84.2,601.9 83.3,603.4 C80,609.1 78.2,615.4 76.3,621.6 C75.6,624.1 76.5,625.9 78.1,627.6 C79.5,629 81.4,629.5 83,628.4 C84.4,627.4 85.7,626.1 86.6,624.7 C89,621.2 90.1,617.1 91.1,613 C92.1,609 92.9,605.1 92.4,600.8 Z M74.8,628 C74.4,630.1 74,632.1 73.5,634 C73.2,635.4 72.6,635.6 71.7,634.6 C69.8,632.6 69.2,630.2 69.5,627.6 C70,623.9 70.5,620.2 71.4,616.6 C75,602.2 79.3,588.1 84.3,574.2 C84.8,572.9 85.3,571.6 85.9,570.3 C86.5,569 87.4,568.9 88.3,570 C89.7,571.8 90.2,574 89.9,576.2 C89.4,579.2 88.9,582.2 88,585.2 C86.7,589.6 85,593.9 83.4,598.7 C84.6,597.5 85.4,596.6 86.4,595.7 C91.1,591.7 96.4,593.4 97.9,599.4 C99.6,606 98.5,612.4 96.6,618.8 C95.5,622.4 93.9,625.9 91.3,628.8 C86.7,634 79.9,633.9 75.4,628.5 C75.3,628.4 75.1,628.3 74.8,628 Z" id="Shape" fill="#FFFFFF" fill-rule="nonzero"></path>
            <path d="M270.4,608.5 C279.4,620.7 288.3,632.7 297.5,645.2 C295.1,645.2 293,644.9 290.9,645.2 C286.3,646 283.5,644.1 280.9,640.2 C275.7,632.4 269.9,625 264.3,617.5 C264.1,617.2 263.8,616.9 263.5,616.5 C261.1,619.4 258.8,622.2 256.6,625 C256.2,625.5 256.2,626.3 256.2,627 C256.2,632.3 256.2,637.7 256.2,643 C256.2,643.7 256.2,644.3 256.2,645.1 C252.7,645.1 249.3,645.1 245.9,645.1 C245.9,623 245.9,600.9 245.9,578.8 C249.3,578.8 252.6,578.8 256.2,578.8 C256.2,589.5 256.2,600.2 256.2,610.9 C256.3,611 256.5,611 256.6,611.1 C258.4,608.8 260.3,606.4 262.1,604.1 C268.4,596.1 274.7,588.2 280.9,580.2 C281.8,579 282.8,578.6 284.2,578.6 C287.3,578.7 290.3,578.7 294,578.7 C285.9,588.8 278.2,598.6 270.4,608.5 Z" id="Shape" fill="#FFFFFF" fill-rule="nonzero"></path>
            <path d="M230.8,645.1 C227.3,645.1 224,645.1 220.6,645.1 C220.6,623 220.6,601 220.6,578.8 C224,578.8 227.4,578.8 230.8,578.8 C230.8,600.9 230.8,622.9 230.8,645.1 Z" id="Shape" fill="#FFFFFF" fill-rule="nonzero"></path>
            <path d="M316.6,635.7 C316.6,632 316.6,628.4 316.6,624.6 C326,624.6 335.3,624.6 344.6,624.6 C344.6,621.5 344.6,618.6 344.6,615.5 C335.2,615.5 325.9,615.5 316.6,615.5 C316.6,606.3 316.6,597.2 316.6,588 C327.2,588 337.7,588 348.2,588 C348.2,584.8 348.2,581.8 348.2,578.7 C334.1,578.7 320.2,578.7 306.1,578.7 C306.1,591 306.1,603.3 306.1,615.5 L300.4,615.5 L300.4,624.6 L306.1,624.6 C306.1,631.5 306.1,638.3 306.1,645.1 C320.7,645.1 335.1,645.1 349.5,645.1 C349.5,642 349.5,639 349.5,635.7 C338.4,635.7 327.5,635.7 316.6,635.7 Z" id="Shape" fill="#FFFFFF" fill-rule="nonzero"></path>
            <path d="M199,627.2 C198.2,633 194.8,635.9 188.7,636.1 C183.4,636.3 178.1,636.2 172.5,636.2 C172.5,628.5 172.5,621 172.5,613.2 C173.3,613.2 174.1,613.2 174.9,613.2 C179.3,613.2 183.7,613.1 188,613.3 C196.7,613.8 200,619.5 199,627.2 Z M172.5,587.4 C178.1,587.6 183.6,587.6 189,588.1 C191.8,588.4 193.8,590.2 194.4,593.2 C194.9,595.7 195,598.3 193.8,600.7 C192.7,603 190.7,604.4 188.2,604.5 C183,604.7 177.9,604.6 172.5,604.6 C172.5,598.9 172.5,593.4 172.5,587.4 Z M204.7,612.7 C202.6,610.9 200.1,609.6 197.7,608.1 C198.6,607.4 199.7,606.7 200.7,605.8 C207.9,599.7 205.8,586.2 197.6,581.6 C193.8,579.5 189.7,578.7 185.5,578.7 C178.2,578.6 171,578.7 163.7,578.7 C163.2,578.7 162.7,578.7 162.2,578.8 C162.2,587.4 162.2,596 162.2,604.6 L156.5,604.6 L156.5,613.2 L162.2,613.2 C162.2,623.8 162.2,634.4 162.2,645.1 C162.6,645.1 162.9,645.2 163.2,645.2 C171.9,645.2 180.5,645.3 189.1,645.1 C191.9,645.1 194.7,644.5 197.2,643.6 C212.4,638.5 212.6,619.4 204.7,612.7 Z" id="Shape" fill="#FFFFFF" fill-rule="nonzero"></path>
            <path d="M31.5,546 C34.8,544.4 37.6,542.9 40.2,541.7 C42.3,543.8 44,546.1 46.2,547.6 C51.3,551 56.8,551.3 62.4,549 C69.5,546.2 68.4,537.1 63.7,534.2 C61,532.6 58.1,531.4 55.4,529.9 C51.4,527.8 47.2,526.1 43.5,523.6 C33.4,516.8 34,502.8 40.7,496.5 C45.3,492.2 51,491 57.1,491.6 C64.2,492.3 69.6,495.6 73.3,502 C70.7,503.7 68.2,505.3 65.5,507.1 C65,506.5 64.5,505.9 64.1,505.3 C61,501.3 56.1,499.7 51.4,501.1 C48.4,502 46.5,504 46.1,507.2 C45.7,510.9 47,513.9 50.2,515.7 C54.1,517.8 58.3,519.6 62.2,521.7 C65.4,523.4 68.7,525 71.5,527.3 C77.4,532 78.7,538.5 77.4,545.6 C76.1,552.1 71.9,556.3 65.6,558.2 C55.6,561.2 46.1,560.4 37.8,553.4 C35.5,551.4 33.7,548.6 31.5,546 Z" id="Shape" fill="#FFFFFF" fill-rule="nonzero"></path>
            <path d="M279.2,558.8 C275.6,558.8 272.3,558.8 268.7,558.8 C268.7,539.9 268.7,520.9 268.7,501.8 C262.1,501.8 255.7,501.8 249.1,501.8 C249.1,498.6 249.1,495.6 249.1,492.4 C265.7,492.4 282.1,492.4 298.8,492.4 C298.8,495.5 298.8,498.5 298.8,501.7 C292.3,501.7 285.8,501.7 279.2,501.7 C279.2,520.7 279.2,539.7 279.2,558.8 Z" id="Shape" fill="#FFFFFF" fill-rule="nonzero"></path>
            <path d="M224.6,558.8 C220.9,558.8 217.6,558.8 214.1,558.8 C214.1,539.8 214.1,520.9 214.1,501.7 C207.4,501.7 200.9,501.7 194.3,501.7 C194.3,498.5 194.3,495.6 194.3,492.5 C210.9,492.5 227.4,492.5 244.1,492.5 C244.1,495.5 244.1,498.5 244.1,501.6 C237.6,501.6 231.2,501.6 224.6,501.6 C224.6,520.8 224.6,539.7 224.6,558.8 Z" id="Shape" fill="#FFFFFF" fill-rule="nonzero"></path>
            <path d="M308.6,492.4 C312,492.4 315.4,492.4 318.9,492.4 C318.9,511.4 318.9,530.3 318.9,549.5 C328.8,549.5 338.4,549.5 348.2,549.5 C348.2,552.7 348.2,555.7 348.2,558.8 C335.1,558.8 321.9,558.8 308.6,558.8 C308.6,536.7 308.6,514.6 308.6,492.4 Z" id="Shape" fill="#FFFFFF" fill-rule="nonzero"></path>
            <path d="M99.4,549.5 C99.4,545.7 99.4,542.1 99.4,538.4 C108.8,538.4 118.1,538.4 127.4,538.4 C127.4,535.2 127.4,532.3 127.4,529.2 C118,529.2 108.7,529.2 99.4,529.2 C99.4,519.9 99.4,510.9 99.4,501.7 C110.1,501.7 120.6,501.7 131.1,501.7 C131.1,498.5 131.1,495.5 131.1,492.5 C117,492.5 103,492.5 89,492.5 C89,504.7 89,517 89,529.2 L83.3,529.2 L83.3,538.2 L89,538.2 C89,545.1 89,552 89,558.8 C103.5,558.8 118,558.8 132.5,558.8 C132.5,555.7 132.5,552.7 132.5,549.5 C121.4,549.5 110.4,549.5 99.4,549.5 Z" id="Shape" fill="#FFFFFF" fill-rule="nonzero"></path>
            <path d="M369.5,549.4 C369.5,545.7 369.5,542.1 369.5,538.3 C378.9,538.3 388.2,538.3 397.5,538.3 C397.5,535.1 397.5,532.2 397.5,529.2 C388.1,529.2 378.8,529.2 369.5,529.2 C369.5,520 369.5,510.9 369.5,501.7 C380.1,501.7 390.6,501.7 401.1,501.7 C401.1,498.5 401.1,495.5 401.1,492.5 C387,492.5 373,492.5 359,492.5 C359,504.7 359,516.9 359,529.2 L353.3,529.2 L353.3,538.2 L359,538.2 C359,545.1 359,551.9 359,558.8 C373.6,558.8 388,558.8 402.4,558.8 C402.4,555.7 402.4,552.7 402.4,549.4 C391.3,549.4 380.4,549.4 369.5,549.4 Z" id="Shape" fill="#FFFFFF" fill-rule="nonzero"></path>
            <path d="M158,540.2 C161.6,531.5 165.2,523 169,514 C172.7,522.9 176.2,531.5 179.8,540.2 C172.5,540.2 165.4,540.2 158,540.2 Z M194.6,549.5 L197.8,549.5 L197.8,540.2 L190.6,540.2 C183.5,523.7 176.4,507.3 169.4,491 C169.2,491 169,491 168.8,491 C161.8,507.3 154.8,523.7 147.7,540.2 L140.4,540.2 L140.4,549.5 L143.7,549.5 C142.3,552.6 141,555.8 139.7,558.9 C142.9,558.9 145.9,558.8 148.8,558.9 C150,559 150.5,558.5 150.8,557.5 C151.7,555.2 152.6,553.1 153.5,550.9 C153.8,549.9 154.3,549.5 155.4,549.5 C164.4,549.6 173.4,549.5 182.5,549.6 C183.1,549.6 184,550.2 184.2,550.8 C185.3,553 186.1,555.4 187.1,557.7 C187.3,558.2 188,558.8 188.5,558.8 C191.8,558.9 195.1,558.9 198.6,558.9 C197.3,555.8 195.9,552.7 194.6,549.5 Z" id="Shape" fill="#FFFFFF" fill-rule="nonzero"></path>
        </g>
    </g>
</svg>